<?xml version="1.0" encoding="utf-8"?>
<!-- Generator: Adobe Illustrator 27.0.0, SVG Export Plug-In . SVG Version: 6.00 Build 0)  -->
<svg version="1.1" id="Warstwa_1" xmlns="http://www.w3.org/2000/svg" xmlns:xlink="http://www.w3.org/1999/xlink" x="0px" y="0px"
	 viewBox="0 0 96 96" style="enable-background:new 0 0 96 96;" xml:space="preserve">
<style type="text/css">
	.st0{fill:#99425B;}
	.st1{fill:#FFFFFF;}
</style>
<path class="st0" d="M73.5,48c0-3.4-2.8-6-6-6c-0.1,0-0.6,0-0.7,0l8.5-25.1H38.9L47.6,42c-0.1,0-0.3,0-0.4,0c-3.4,0-6,2.8-6,6
	c0,2.8,1.9,5.1,4.4,5.9c-1.3,2.2-3.1,4.4-4.7,6c-2.5,2.5-5.4,4.3-8.7,5.4c-3.8-2.1-5.6-6.2-4-10c0.1-0.6,0.4-0.7,0.6-1.3
	c2.8-0.7,4.7-3.2,4.7-6c0-3.4-2.8-6-6-6s-6.3,2.6-6.3,5.9c0,2.1,1,4,2.6,5.1c-1.5,3.4-3.8,7.2-4.6,11.3c-0.7,5.1,0,10.4,4.4,13.5
	C33.8,85,45,73.4,56.7,70.5c4.3-1,8.8-0.7,12.5-3.1c2.8-1.6,4.7-4.4,5.1-7.3c0.4-2.9-0.3-6-2.1-8.4C72.9,50.9,73.5,49.5,73.5,48"/>
<path class="st1" d="M72.4,60c-0.6,2.6-2.1,4.8-4.6,6.2c-2.1,1.3-4.7,1.8-7.6,2.1c-1.5,0.1-3.1,0.6-4.6,0.7c-4,0.9-7.8,2.9-11.6,4.7
	c-7.3,3.7-14,7.1-20.1,2.8c-4.6-3.2-4.3-8.8-3.8-12c0.6-2.9,1.9-5.6,3.1-8.2c0.1-0.6,0.6-0.7,0.7-1.3c0.7,0.3,1.3,0.4,2.1,0.6
	c-1.3,4.3,0.7,8.8,5,11.2l0.6,0.3l0.6-0.1c3.4-1.2,6.5-3.2,9.1-5.7c1.9-1.8,3.2-3.4,4.6-5.4c0.3,0.3,0.6,0.3,1,0.3
	c3.8,0,7.2-2.9,7.6-6.8c1.6-0.1,3.2-0.1,4.8,0c0.6,3.8,3.7,6.8,7.6,6.8c1.6,0,3.2-0.6,4.4-1.5C72.4,56.1,72.9,58.1,72.4,60L72.4,60z
	 M26.9,43.4c2.5,0,4.6,2.1,4.6,4.6c0,0.9-0.3,1.9-0.7,2.5c-0.7,1.2-2.1,2.1-3.5,2.1c-0.1,0-0.1,0-0.3,0c-0.6,0-1.2-0.1-1.6-0.3
	c-1-0.4-1.9-1.2-2.5-2.1C22.3,49.5,22,48.7,22,48C22.2,45.5,24.2,43.4,26.9,43.4L26.9,43.4z M42.5,48c0-2.4,1.8-4.3,4-4.6
	c0.1,0,0.6-0.1,0.7-0.1c1.5,0,2.8,0.7,3.7,1.9c0.1,0.3,0.4,0.6,0.6,0.7c0.3,0.7,0.6,1.3,0.6,2.1c0,0.4,0,0.7-0.1,1
	c-0.6,1.9-2.1,3.4-4.1,3.5c-0.1,0-0.3,0-0.6,0c-0.9,0-1.9-0.3-2.5-0.7C43.2,51.1,42.5,49.7,42.5,48L42.5,48z M62,42.5
	c-1,0.9-1.9,2.1-2.1,3.5c-1.9-0.1-3.4-0.1-5.3,0c-0.4-1.5-1.2-2.8-2.4-3.8l4.7-9.8L62,42.5z M41.1,18.3H73l-7.5,22.2
	c-0.3,0.1-0.7,0.1-0.9,0.3l-7.3-15.3L50,40.6c-0.3-0.1-0.7-0.1-1-0.3L41.1,18.3z M71.8,48c0,0.6-0.1,0.9-0.1,1.3
	c-0.3,1-0.9,1.9-1.9,2.5c-0.7,0.6-1.8,0.7-2.6,0.7c-2.1,0-4-1.5-4.6-3.4c-0.1-0.4-0.1-0.7-0.1-1.2c0-0.6,0.1-1.2,0.4-1.9
	c0.1-0.3,0.3-0.6,0.6-0.7c0.7-1.2,2.2-2.1,3.8-2.1c0.1,0,0.3,0,0.6,0C70.2,43.7,71.8,45.6,71.8,48L71.8,48z M74.9,48
	c0-3.8-2.8-6.9-6.2-7.5l8.5-25.1H37l8.5,25.3c-3.4,0.7-6,3.8-6,7.3c0,2.8,1.5,5.1,3.5,6.5c-1,1.6-2.2,3.1-3.7,4.4
	c-2.2,2.1-4.7,3.8-7.3,4.7c-2.8-1.8-3.8-4.8-2.6-7.8l0.1-0.1l0.1-0.4c3.1-1,5.1-3.8,5.1-7.3c0-4.3-3.4-7.6-7.6-7.6s-7.8,3.2-7.8,7.5
	c0,2.1,0.7,4.1,2.2,5.4c-0.3,0.6-0.6,1.2-0.7,1.8c-1.3,2.6-2.8,5.7-3.2,9c-1.2,6.6,0.6,12,5,15c2.6,1.9,5.3,2.5,8.1,2.5
	c5.1,0,10.1-2.5,15.1-5c3.5-1.9,7.3-3.7,11.2-4.6c1.3-0.4,2.8-0.6,4.3-0.7c2.9-0.6,6-0.7,8.7-2.5c3.2-1.9,5.3-4.8,5.9-8.5
	c0.6-3.1-0.1-6-1.6-8.5C74.5,50.8,74.9,49.5,74.9,48L74.9,48z"/>
</svg>
