<?xml version="1.0" encoding="utf-8"?>
<!-- Generator: Adobe Illustrator 27.0.0, SVG Export Plug-In . SVG Version: 6.00 Build 0)  -->
<svg version="1.1" id="Warstwa_1" xmlns="http://www.w3.org/2000/svg" xmlns:xlink="http://www.w3.org/1999/xlink" x="0px" y="0px"
	 viewBox="0 0 90 90" style="enable-background:new 0 0 90 90;" xml:space="preserve">
<style type="text/css">
	.st0{fill:url(#SVGID_1_);}
	.st1{fill:url(#SVGID_00000000212917143383058610000008162382646792883635_);}
</style>
<linearGradient id="SVGID_1_" gradientUnits="userSpaceOnUse" x1="-1822.2532" y1="584.4854" x2="-1822.2366" y2="584.4652" gradientTransform="matrix(2454.3228 0 0 -2187.2434 4472423.5 1278422.125)">
	<stop  offset="0" style="stop-color:#41D1FF"/>
	<stop  offset="1" style="stop-color:#BD34FE"/>
</linearGradient>
<path class="st0" d="M79.8,20.3L46.9,79.1c-0.7,1.3-2.3,1.3-3.2,0L10.2,20.3c-0.7-1.3,0.5-2.9,1.9-2.7l32.9,6c0.2,0,0.5,0,0.7,0
	l32.2-5.8C79.3,17.3,80.5,19,79.8,20.3z"/>
<linearGradient id="SVGID_00000003105844404588092260000001429922622286251919_" gradientUnits="userSpaceOnUse" x1="-1822.1031" y1="584.3193" x2="-1822.1012" y2="584.2946" gradientTransform="matrix(1125.4194 0 0 -2051.6592 2050679.5 1198835.125)">
	<stop  offset="0" style="stop-color:#FFEA83"/>
	<stop  offset="8.299999e-02" style="stop-color:#FFDD35"/>
	<stop  offset="1" style="stop-color:#FFA800"/>
</linearGradient>
<path style="fill:url(#SVGID_00000003105844404588092260000001429922622286251919_);" d="M60.8,10l-24.4,4.8
	c-0.5,0.1-0.7,0.5-0.7,0.8l-1.5,25.3c0,0.5,0.4,0.9,0.8,0.9c0.1,0,0.1,0,0.2,0l6.8-1.5c0.7-0.1,1.3,0.5,1.1,1.1l-2,9.9
	c-0.1,0.7,0.5,1.3,1.2,1.1l4.2-1.3c0.7-0.1,1.3,0.5,1.2,1.1l-3.3,15.5c-0.1,0.9,1.1,1.5,1.6,0.7l0.4-0.6l19.8-39.7
	c0.4-0.7-0.2-1.4-0.9-1.3l-7,1.3c-0.7,0.1-1.3-0.5-0.9-1.2L61.8,11C61.9,10.4,61.5,9.7,60.8,10L60.8,10z"/>
</svg>
